<svg width="32" height="32" viewBox="0 0 32 32" fill="none" xmlns="http://www.w3.org/2000/svg">
<path d="M6.6665 10.667C4.45317 10.667 2.6665 12.4537 2.6665 14.667V25.3337C2.6665 27.547 4.45317 29.3337 6.6665 29.3337H8.6665C10.1332 29.3337 11.3332 28.1337 11.3332 26.667V13.3337C11.3332 11.867 10.1332 10.667 8.6665 10.667H6.6665ZM7.99984 22.667C7.99984 23.2137 7.5465 23.667 6.99984 23.667C6.45317 23.667 5.99984 23.2137 5.99984 22.667V17.3337C5.99984 16.787 6.45317 16.3337 6.99984 16.3337C7.5465 16.3337 7.99984 16.787 7.99984 17.3337V22.667Z" fill="white"/>
<path d="M25.3335 2.66699H17.3335C15.1202 2.66699 13.3335 4.45366 13.3335 6.66699V25.3337C13.3335 27.547 15.1202 29.3337 17.3335 29.3337H18.0002C18.3735 29.3337 18.6668 29.0403 18.6668 28.667V24.0003C18.6668 23.267 19.2668 22.667 20.0002 22.667H22.6668C23.4002 22.667 24.0002 23.267 24.0002 24.0003V28.667C24.0002 29.0403 24.2935 29.3337 24.6668 29.3337H25.3335C27.5468 29.3337 29.3335 27.547 29.3335 25.3337V6.66699C29.3335 4.45366 27.5468 2.66699 25.3335 2.66699ZM19.6668 17.3337C19.6668 17.8803 19.2135 18.3337 18.6668 18.3337C18.1202 18.3337 17.6668 17.8803 17.6668 17.3337V10.667C17.6668 10.1203 18.1202 9.66699 18.6668 9.66699C19.2135 9.66699 19.6668 10.1203 19.6668 10.667V17.3337ZM25.0002 17.3337C25.0002 17.8803 24.5468 18.3337 24.0002 18.3337C23.4535 18.3337 23.0002 17.8803 23.0002 17.3337V10.667C23.0002 10.1203 23.4535 9.66699 24.0002 9.66699C24.5468 9.66699 25.0002 10.1203 25.0002 10.667V17.3337Z" fill="white"/>
</svg>
